<svg xmlns="http://www.w3.org/2000/svg" viewBox="0 0 32 32" fill="none">
  <defs>
    <linearGradient id="face" x1="20%" y1="8%" x2="80%" y2="92%">
      <stop offset="0%" stop-color="#f5e6dc"/>
      <stop offset="55%" stop-color="#e2c4b0"/>
      <stop offset="100%" stop-color="#c4a090"/>
    </linearGradient>
    <linearGradient id="halo" x1="0%" y1="0%" x2="100%" y2="100%">
      <stop offset="0%" stop-color="#6e8bff"/>
      <stop offset="100%" stop-color="#38d3ff"/>
    </linearGradient>
  </defs>
  <circle cx="16" cy="16" r="15" fill="url(#halo)" opacity="0.32"/>
  <ellipse cx="16" cy="15.5" rx="10.5" ry="11.5" fill="url(#face)" stroke="rgba(255,255,255,0.28)" stroke-width="0.6"/>
  <path d="M9.5 12.8c2.2-1.1 4.8-1.1 7 0" stroke="rgba(72,52,44,0.35)" stroke-width="0.7" stroke-linecap="round"/>
  <ellipse cx="11.8" cy="13.6" rx="2.2" ry="1.2" fill="#f8fafc"/>
  <ellipse cx="20.2" cy="13.6" rx="2.2" ry="1.2" fill="#f8fafc"/>
  <circle cx="11.6" cy="13.8" r="1.1" fill="#4a72b8"/>
  <circle cx="20.4" cy="13.8" r="1.1" fill="#4a72b8"/>
  <circle cx="11.2" cy="13.4" r="0.35" fill="#fff" opacity="0.85"/>
  <circle cx="20" cy="13.4" r="0.35" fill="#fff" opacity="0.85"/>
  <path d="M11.2 17.2c1.4 0.9 2.8 1.2 4.8 1.2s3.4-.3 4.8-1.2" stroke="rgba(100,65,55,0.2)" stroke-width="0.5" fill="none"/>
  <path d="M12.8 18.8c1 0.7 2 1 3.2 1s2.2-.3 3.2-1" stroke="#a85a6a" stroke-width="1" stroke-linecap="round"/>
  <ellipse cx="16" cy="19.2" rx="2.2" ry="0.55" fill="rgba(255,255,255,0.25)"/>
</svg>
